<svg width="332" height="90" viewBox="0 0 332 90" fill="none" xmlns="http://www.w3.org/2000/svg">
<path d="M47.2813 50.9469C46.4536 47.1228 45.0286 43.476 43.5555 39.8776C39.6609 39.5767 33.7039 36.1422 32.8387 32.1084C32.3968 30.0526 33.3128 28.7519 35.5012 29.0851C38.7073 29.5716 42.859 36.0508 44.1715 38.9102C46.8152 39.5417 49.5312 39.6331 52.2124 39.1843C53.8222 36.2336 58.7828 29.3297 62.5488 29.9962C65.2809 30.4799 63.9417 33.5596 62.9104 35.0834C60.8453 38.1335 56.3454 39.9959 52.7562 40.1813C51.0982 43.7018 49.3544 47.2061 48.2991 50.9819L47.284 50.9469H47.2813ZM47.6134 48.2999C48.2938 48.4289 48.0313 48.2542 48.1839 47.9425C49.3625 45.5399 50.1018 42.7585 51.3607 40.3614C49.2339 40.7376 47.0509 40.5495 44.9376 40.1437L47.6107 48.2999H47.6134ZM53.5517 39.0876C56.6373 38.6441 61.1587 36.5856 62.6238 33.6644C63.0685 32.7749 63.6738 31.2861 62.2488 31.0469C59.5328 30.5901 54.674 36.8436 53.549 39.0876H53.5517ZM42.843 38.7221C41.8519 36.3545 37.4377 29.8376 34.7083 30.1063C33.27 30.2488 33.7735 31.7779 34.1592 32.6943C35.3806 35.6074 39.8538 38.1443 42.8457 38.7221H42.843Z" fill="white"/>
<path d="M32.7648 29.355C33.3791 28.6128 34.3827 28.3663 35.5818 28.5488L35.5816 28.5491C36.5285 28.6928 37.482 29.263 38.3713 30.0075C39.2707 30.7605 40.1571 31.7365 40.9719 32.7726C42.5133 34.7326 43.8395 36.9619 44.549 38.4411C46.9579 38.9834 49.4248 39.0664 51.866 38.6903C52.7277 37.1647 54.3262 34.808 56.178 32.86C57.1526 31.8347 58.2157 30.9031 59.2956 30.2681C60.3694 29.6367 61.521 29.2635 62.6425 29.462L62.7884 29.4909C63.506 29.6465 64.0368 29.9832 64.3594 30.4893C64.694 31.0143 64.7479 31.6344 64.6785 32.2144C64.5412 33.3613 63.8933 34.5975 63.3589 35.3873L63.3586 35.3876C62.2557 37.0165 60.5257 38.2994 58.6367 39.1966C56.8539 40.0434 54.8938 40.5636 53.1091 40.7017C51.4859 44.1394 49.8325 47.508 48.8207 51.1278L48.7058 51.5385L47.2723 51.4893H46.843L46.7503 51.0616C45.9565 47.3943 44.6037 43.8831 43.1759 40.3852C41.1777 40.1521 38.7844 39.2049 36.7577 37.8431C34.6271 36.4114 32.7836 34.4417 32.3075 32.2226L32.267 32.016C32.0839 30.9882 32.2039 30.0327 32.7648 29.355ZM35.5003 29.0851C33.312 28.7519 32.396 30.0526 32.8379 32.1084C33.7031 36.1422 39.66 39.5768 43.5546 39.8778C44.9817 43.3636 46.3636 46.8949 47.201 50.5888L47.2805 50.9469H47.2831L48.2982 50.9818C49.3535 47.2061 51.0973 43.7017 52.7553 40.1813C56.2884 39.9987 60.704 38.1913 62.8109 35.2255L62.9097 35.0833C63.9248 33.5833 65.2382 30.5757 62.6729 30.0208L62.5479 29.9961C58.782 29.3297 53.8214 36.2337 52.2116 39.1844C49.5304 39.6332 46.8143 39.5416 44.1706 38.9101C42.8683 36.073 38.7712 29.6726 35.5758 29.0976L35.5003 29.0851ZM44.9367 40.1437C47.0501 40.5495 49.2332 40.7376 51.3599 40.3613C50.101 42.7585 49.3615 45.5399 48.183 47.9424C48.0303 48.2541 48.2929 48.4289 47.6126 48.2999H47.6099L44.9367 40.1437ZM47.8673 47.3444C48.3665 46.2732 48.7911 45.1299 49.2339 43.9583C49.6019 42.9843 49.982 41.9926 50.4237 41.0361C48.8507 41.1905 47.27 41.0785 45.7336 40.8341L47.8673 47.3444ZM53.5482 39.0875C54.6732 36.8435 59.5319 30.5903 62.2479 31.047C63.6729 31.2862 63.0675 32.7751 62.6229 33.6646C61.1577 36.5857 56.6365 38.6441 53.5509 39.0875H53.5482ZM34.7074 30.1063C37.4365 29.8376 41.8502 36.353 42.8419 38.7213C39.85 38.1424 35.3794 35.6064 34.1584 32.6942C33.7727 31.7779 33.2692 30.2488 34.7074 30.1063ZM62.1581 31.5817C61.6889 31.5028 61.0248 31.71 60.197 32.2493C59.3915 32.7742 58.5274 33.5502 57.6949 34.4278C56.4579 35.732 55.3359 37.2126 54.621 38.324C55.8419 38.0232 57.1925 37.5129 58.433 36.8301C60.0884 35.919 61.4757 34.7414 62.1377 33.422C62.3617 32.9738 62.5733 32.4703 62.5951 32.0814C62.6053 31.8986 62.5694 31.8025 62.5323 31.7517C62.5011 31.709 62.4162 31.625 62.1581 31.5817ZM34.7606 30.6458L34.7609 30.646C34.5005 30.6718 34.4102 30.7497 34.3761 30.7904C34.3355 30.8388 34.2934 30.9327 34.2913 31.1161C34.2876 31.4572 34.4228 31.8959 34.5866 32.3089L34.6584 32.484L34.6586 32.4845L34.7124 32.6074C35.2906 33.875 36.5762 35.1158 38.1335 36.1294C39.335 36.9114 40.652 37.5277 41.8332 37.9016C41.1914 36.7307 40.1636 35.1639 39.0093 33.7718C38.239 32.8429 37.4309 32.0147 36.665 31.44C35.8781 30.8496 35.232 30.5994 34.7606 30.6458Z" fill="white"/>
<path d="M42.4549 50.275C42.0237 55.5745 37.4702 59.9388 32.1989 60.0274C31.6953 59.6432 32.3435 57.5927 32.5605 57.0472C34.039 53.3278 38.3514 49.9632 42.4549 50.275ZM33.3212 58.8343C36.9747 58.329 40.6148 55.0934 41.0755 51.3015C37.4461 52.1803 33.9372 54.9859 33.3212 58.8343Z" fill="white"/>
<path d="M36.2077 51.7083C38.0569 50.3889 40.2847 49.5666 42.4956 49.7346L43.0393 49.7759L42.9951 50.3193C42.5418 55.8888 37.7657 60.4766 32.2075 60.5701L32.0192 60.5733L31.8693 60.4589C31.6895 60.3217 31.5947 60.1363 31.5438 59.9772C31.4927 59.8174 31.4737 59.6481 31.4696 59.4909C31.4614 59.177 31.5108 58.822 31.5772 58.4915C31.7107 57.8264 31.9372 57.1459 32.056 56.8471L32.1315 56.6631C32.9336 54.764 34.4155 52.9871 36.2077 51.7083ZM42.4545 50.2754C38.3511 49.9636 34.0385 53.3283 32.5599 57.0476L32.5147 57.1668C32.2706 57.8318 31.7442 59.6073 32.1757 60.0087L32.1985 60.0277C37.4697 59.939 42.0233 55.5748 42.4545 50.2754ZM41.075 51.3018C40.6143 55.0937 36.9743 58.3294 33.3208 58.8347C33.9369 54.9864 37.4457 52.1806 41.075 51.3018ZM40.3796 52.0635C37.4638 53.0201 34.8379 55.2395 34.0263 58.1451C35.4653 57.7843 36.8765 56.9896 38.0226 55.9064C39.1592 54.8323 40.0107 53.498 40.3796 52.0635Z" fill="white"/>
<path d="M62.9785 60.8959C62.4963 61.5221 59.925 60.4391 59.2768 60.1193C56.7161 58.8562 54.6456 56.5854 53.7242 53.8819C52.5778 50.5146 53.076 49.9476 56.4215 51.3531C60.016 52.8634 63.0026 56.9052 62.9758 60.8959H62.9785ZM54.4662 51.7589C54.6885 55.6582 58.0259 58.9315 61.6928 59.8022C61.2749 55.8732 58.0875 52.9279 54.4662 51.7589Z" fill="white"/>
<path d="M53.0104 50.4375C53.4133 50.0472 53.9971 50.0504 54.525 50.1475C55.0846 50.2505 55.7877 50.4982 56.6309 50.8525H56.6312L56.8075 50.9285C60.3404 52.498 63.2781 56.3714 63.5035 60.353H64.08L63.4076 61.2262C63.2494 61.4317 63.0313 61.5324 62.8396 61.5808C62.6488 61.6288 62.446 61.6355 62.2559 61.6245C61.8755 61.6024 61.4423 61.5023 61.0353 61.3816C60.318 61.169 59.5897 60.8644 59.1876 60.6774L59.0363 60.6051C56.4379 59.3234 54.317 57.0506 53.3049 54.3218L53.2103 54.0561C52.9216 53.2081 52.722 52.4973 52.6526 51.9343C52.5874 51.4051 52.6125 50.823 53.0104 50.4375ZM56.4209 51.3525C53.0755 49.947 52.5772 50.5139 53.7236 53.8811C54.645 56.5846 56.7156 58.8556 59.2763 60.1186C59.9245 60.4384 62.4954 61.5212 62.9778 60.8954H62.9752C63.0015 56.967 60.1081 52.989 56.589 51.425L56.4209 51.3525ZM54.4656 51.7582C58.0869 52.9272 61.2744 55.8725 61.6923 59.8014C58.0254 58.9307 54.688 55.6576 54.4656 51.7582ZM55.1086 52.5696C55.6565 55.5439 58.1399 58.0571 61.0205 59.0429C60.3695 56.0652 57.9774 53.7395 55.1086 52.5696Z" fill="white"/>
<path d="M34.8469 47.2573C33.2478 47.4212 31.5068 47.2385 29.9827 46.7494C29.2194 46.5048 25.9757 45.0294 26.3319 43.976C26.4364 43.6696 28.8176 42.5248 29.2622 42.3716C32.7577 41.1677 37.9861 41.6944 40.2066 44.922C38.854 46.1474 36.6496 47.0692 34.8469 47.2546V47.2573ZM27.9203 44.1372C30.497 46.7897 35.7281 46.9052 38.6183 44.6317C35.629 42.3636 31.1506 42.4442 27.9203 44.1372Z" fill="white"/>
<path d="M29.2599 41.8001C31.0679 41.2142 33.2687 41.0624 35.3145 41.4516C37.4238 41.8529 39.4368 42.8447 40.654 44.6139L40.9228 45.0048L40.5713 45.3231C39.2469 46.523 37.1919 47.4326 35.3897 47.7275V47.7463L34.9026 47.7961C33.2291 47.9677 31.4127 47.7771 29.8174 47.2651V47.2649C29.3903 47.128 28.3491 46.6791 27.4535 46.1272C27.007 45.852 26.5614 45.5302 26.2453 45.1852C25.9552 44.8684 25.6275 44.3672 25.8187 43.8017L25.819 43.8004L25.8367 43.7546C25.8809 43.652 25.9439 43.5788 25.9789 43.5408C26.0273 43.4884 26.081 43.4414 26.1307 43.4015C26.2307 43.3213 26.3546 43.238 26.4847 43.1568C26.7475 42.9929 27.0834 42.8086 27.4207 42.6341C28.0842 42.2906 28.8223 41.949 29.0862 41.8581L29.2599 41.8001ZM40.2072 44.9214C37.9867 41.6939 32.7583 41.1672 29.2628 42.3711L29.1577 42.4108C28.5294 42.6639 26.4304 43.6882 26.3325 43.9754C25.9763 45.0288 29.2197 46.5041 29.9832 46.7487C31.5072 47.2378 33.2483 47.4206 34.8473 47.2567V47.254C36.5936 47.0744 38.7172 46.2037 40.078 45.0353L40.2072 44.9214ZM27.9207 44.1367C31.1509 42.4437 35.6295 42.363 38.6187 44.6311C35.7286 46.9046 30.4974 46.7891 27.9207 44.1367ZM37.6566 44.6338C35.1166 43.1021 31.6586 43.1042 28.8942 44.276C30.0359 45.1483 31.5731 45.6279 33.173 45.6891C34.7833 45.7508 36.3962 45.3856 37.6566 44.6338Z" fill="white"/>
<path d="M48.3621 37.2891C47.1058 37.5148 45.8068 32.2557 45.7719 31.1726C45.6862 28.5283 46.4657 24.9702 48.5978 23.3067C49.4361 23.2476 49.8754 24.5053 50.1942 25.204C51.6968 28.5148 51.5575 32.9356 49.4844 35.9696C49.2647 36.2894 48.6701 37.2327 48.3647 37.2864L48.3621 37.2891ZM48.4076 24.9326C46.4496 28.3402 46.3344 32.1938 48.1719 35.6767C50.5451 33.1264 50.7486 28.238 48.9915 25.2954C48.8335 25.0293 49.037 24.8143 48.4076 24.9299V24.9326Z" fill="white"/>
<path d="M48.6274 22.763C49.3264 22.7477 49.781 23.2666 50.0461 23.6775C50.2583 24.0063 50.4342 24.4021 50.5678 24.7085L50.687 24.9794L50.6875 24.9802L50.7598 25.1433C52.253 28.584 52.0915 33.1151 49.9317 36.276L49.9309 36.2771C49.8342 36.4179 49.6127 36.7601 49.3883 37.0559C49.275 37.2053 49.1474 37.3618 49.0185 37.4892C48.9541 37.5529 48.8797 37.6188 48.7982 37.6748C48.7629 37.6991 48.7184 37.7268 48.6661 37.7522L48.6253 37.7932L48.4574 37.8234C48.092 37.889 47.7794 37.7407 47.5527 37.5599C47.3288 37.3812 47.1366 37.1324 46.9719 36.869C46.6402 36.3384 46.3432 35.6224 46.0953 34.8976C45.8452 34.1659 45.6353 33.3953 45.4854 32.7379C45.3387 32.0941 45.2399 31.5182 45.2294 31.1907L45.2235 30.9299C45.2082 29.6125 45.3941 28.1079 45.8356 26.709C46.3045 25.223 47.0791 23.8037 48.2635 22.8796L48.3941 22.7779L48.5591 22.7662L48.6274 22.763ZM48.5972 23.3073L48.4984 23.3864C46.4411 25.0815 45.6871 28.5699 45.7715 31.173C45.8057 32.2391 47.0651 37.3522 48.3027 37.2961L48.3615 37.2895L48.3642 37.2869C48.5932 37.2466 48.9851 36.706 49.2593 36.3033L49.4839 35.9701C51.557 32.9361 51.6962 28.5153 50.1936 25.2045C49.8749 24.5058 49.4356 23.2481 48.5972 23.3073ZM48.4071 24.9304C49.0365 24.8148 48.833 25.0298 48.991 25.2959L49.072 25.4352C50.7413 28.3907 50.5074 33.1668 48.1714 35.6772C46.3339 32.1944 46.4491 28.3406 48.4071 24.933V24.9304ZM48.603 25.7082C47.1312 28.5802 47.0044 31.7318 48.2858 34.6658C49.0477 33.5551 49.4877 32.109 49.589 30.5972C49.7071 28.8347 49.3602 27.0525 48.603 25.7082Z" fill="white"/>
<path d="M55.806 44.8462C55.9024 44.6903 58.7148 43.352 59.0978 43.2338C61.3103 42.5485 64.2781 42.6963 66.4557 43.5132C67.0825 43.747 69.7155 45.0424 69.6967 45.6873C69.5575 46.3135 68.8102 46.6763 68.2798 46.9692C65.0897 48.7402 61.1871 48.7268 57.9247 47.0848C57.3515 46.7972 55.3158 45.6309 55.806 44.8462ZM57.3675 45.1391C60.1344 47.9662 64.6745 47.4986 68.0575 46.034C68.7512 45.1794 64.5004 44.0695 63.9835 44.0077C61.6157 43.7282 59.4648 44.0346 57.3702 45.1418L57.3675 45.1391Z" fill="white"/>
<path d="M58.9338 42.716C61.2697 41.9926 64.3609 42.1499 66.6422 43.0057H66.6419C66.9929 43.1367 67.8363 43.5343 68.59 43.9795C68.9675 44.2025 69.345 44.4503 69.6335 44.6953C69.7768 44.8171 69.9158 44.9529 70.0222 45.0984C70.1206 45.2328 70.2424 45.4444 70.2349 45.7035L70.2333 45.7549L70.2222 45.8055C70.1117 46.3021 69.771 46.6484 69.4589 46.8855C69.1485 47.1214 68.7815 47.3094 68.5387 47.4435L68.5389 47.4437C65.1827 49.3069 61.0899 49.2873 57.6769 47.5695V47.5693C57.3721 47.4163 56.681 47.0326 56.1186 46.5717C55.8416 46.3446 55.5565 46.0675 55.3771 45.7602C55.1942 45.4469 55.0697 44.9969 55.3408 44.5611H55.3406C55.3879 44.4846 55.4445 44.4352 55.4626 44.4194C55.4895 44.396 55.5162 44.3763 55.5373 44.3614C55.5801 44.3311 55.6291 44.3003 55.6777 44.2713C55.7766 44.2124 55.9057 44.1418 56.0503 44.0656C56.3413 43.9122 56.7201 43.7235 57.1043 43.5378C57.4892 43.3517 57.8838 43.1667 58.2076 43.02C58.5142 42.8811 58.7977 42.7577 58.9338 42.7157V42.716ZM66.4518 43.5137C64.2742 42.6967 61.3062 42.5487 59.0937 43.234L58.9947 43.27C58.3696 43.5151 55.8923 44.7004 55.8019 44.8466C55.3118 45.6313 57.3473 46.7976 57.9205 47.0852C61.183 48.7272 65.0856 48.7404 68.2757 46.9694C68.7894 46.6857 69.507 46.3365 69.678 45.7457L69.6928 45.6877C69.7104 45.083 67.3973 43.9069 66.5916 43.5695L66.4518 43.5137ZM57.3662 45.1421C59.4608 44.035 61.6116 43.7286 63.9793 44.0081C64.4963 44.0699 68.7471 45.1797 68.0535 46.0343C64.6716 47.4985 60.1334 47.9662 57.3662 45.1421ZM63.9158 44.5468C61.9115 44.3102 60.0918 44.5109 58.331 45.2788C59.5061 46.1993 60.9538 46.6108 62.4926 46.654C64.126 46.6999 65.8359 46.3278 67.3575 45.7332C67.1039 45.5726 66.7246 45.3992 66.2791 45.2314C65.7789 45.0429 65.2377 44.8767 64.7884 44.7536C64.3264 44.627 64.0008 44.5568 63.9158 44.5465V44.5468Z" fill="white"/>
<path d="M47.22 52.8901C48.3048 52.3042 49.612 55.6849 49.8262 56.4938C50.6057 59.4473 50.1637 63.4004 48.3102 65.8889C46.9602 67.7029 46.3201 66.1039 45.6719 64.5506C43.9898 60.5195 44.7772 56.4025 47.22 52.8901ZM47.0433 65.2197C47.4825 65.6605 48.1816 63.9164 48.2968 63.6476C49.62 60.5195 49.2316 57.5392 47.9352 54.4971C47.3165 54.3386 47.504 54.567 47.3272 54.8223C45.2647 57.7972 45.6076 62.0379 47.0433 65.2224V65.2197Z" fill="white"/>
<path d="M47.0158 52.3849C47.5703 52.1195 48.0849 52.3935 48.4144 52.686C48.7614 52.9941 49.0686 53.4505 49.3222 53.9032C49.8024 54.7602 50.1815 55.7717 50.3246 56.2631L50.35 56.3542L50.3503 56.3547L50.3874 56.4998C51.1478 59.5598 50.687 63.6048 48.7449 66.2122L48.7446 66.2119C48.3865 66.6932 48.0074 67.0478 47.5804 67.1807C47.0926 67.3325 46.6731 67.1611 46.3657 66.8857C46.0827 66.6321 45.8626 66.2681 45.6835 65.9145C45.546 65.6432 45.4162 65.3436 45.2926 65.0496L45.171 64.7588C43.4051 60.527 44.2457 56.2156 46.7743 52.5798L46.8482 52.4736L46.9618 52.4122L47.0158 52.3849ZM49.8259 56.4932C49.6117 55.6843 48.3045 52.3037 47.2197 52.8894L47.1064 53.0544C44.7528 56.5303 44.0157 60.5818 45.6715 64.5499C46.3197 66.1032 46.9599 67.7022 48.3098 65.8883C50.1633 63.3998 50.6054 59.4466 49.8259 56.4932ZM47.3267 54.8216C47.5035 54.5663 47.3161 54.3378 47.9348 54.4964C49.2312 57.5385 49.6197 60.519 48.2965 63.6471L48.2274 63.8097C48.0105 64.3175 47.4272 65.6047 47.0428 65.2191V65.2217C45.6296 62.0869 45.2753 57.9288 47.2319 54.9619L47.3267 54.8216ZM47.6694 55.284C45.9772 57.8741 46.1424 61.5053 47.3063 64.4514C47.3118 64.4422 47.3182 64.4333 47.3238 64.4238C47.546 64.0465 47.7339 63.5826 47.7979 63.4333C48.9642 60.6742 48.7328 58.0295 47.6694 55.284Z" fill="white"/>
<path d="M77.2881 45C77.2881 28.8246 64.1754 15.7119 48 15.7119C31.8246 15.7119 18.7119 28.8246 18.7119 45C18.7119 61.1754 31.8246 74.2881 48 74.2881V77C30.3269 77 16 62.6731 16 45C16 27.3269 30.3269 13 48 13C65.6731 13 80 27.3269 80 45C80 62.6731 65.6731 77 48 77V74.2881C64.1754 74.2881 77.2881 61.1754 77.2881 45Z" fill="white"/>
<path d="M138.432 60.088C139.712 62.2 141.696 63.864 144.064 64.12V67H127.872L119.232 50.68C119.104 50.68 119.04 50.744 118.912 50.744H114.304V60.088C114.304 62.584 114.944 63.928 117.312 64.12V67H98.24V64.12C100.608 63.928 101.248 62.584 101.248 60.088V29.048C101.248 26.552 100.608 25.272 98.24 25.08V22.2H118.912C130.368 22.2 138.176 27.704 138.176 36.472C138.176 41.592 135.488 45.56 131.008 47.992L138.432 60.088ZM114.304 46.072H117.696C122.56 46.072 125.504 41.336 125.504 36.472C125.504 31.544 122.56 26.872 117.696 26.872H114.304V46.072ZM172.262 57.976L173.99 59.768C171.75 64.056 167.398 67.64 160.229 67.64C151.717 67.64 142.821 61.816 143.461 51.192C144.037 41.848 151.141 35.704 160.294 36.088C170.149 36.472 174.054 42.936 173.926 50.872V51.896H155.493C156.134 57.464 159.846 60.472 164.069 60.728C167.142 60.92 169.894 60.024 172.262 57.976ZM159.91 38.904C157.158 38.904 155.75 42.872 155.429 47.672H163.493C163.493 43.64 162.854 38.904 159.91 38.904ZM199.272 36.664H209.769V39.544C207.4 39.736 206.569 40.888 205.736 42.808L195.816 67H188.776L177.896 42.488C177 40.696 176.04 39.8 173.992 39.544V36.664H193V39.544C190.888 39.672 190.12 41.08 191.08 43.512L195.88 56.632L201 43.576C202.089 40.888 201.128 39.672 199.272 39.544V36.664ZM228.005 60.088C228.005 62.584 228.645 63.928 231.013 64.12V67H212.005V64.12C214.437 63.928 215.077 62.584 215.077 60.088V45.816C215.077 43.32 214.437 41.976 212.005 41.784V38.904L225.125 36.088H228.005V60.088ZM221.605 33.528C217.509 33.528 214.117 31.096 214.117 26.808C214.117 22.584 217.509 20.088 221.605 20.088C225.637 20.088 229.029 22.584 229.029 26.808C229.029 31.096 225.637 33.528 221.605 33.528ZM256.552 36.664H267.049V39.544C264.68 39.736 263.848 40.888 263.016 42.808L253.096 67H246.056L235.176 42.488C234.28 40.696 233.32 39.8 231.272 39.544V36.664H250.28V39.544C248.168 39.672 247.4 41.08 248.36 43.512L253.16 56.632L258.28 43.576C259.368 40.888 258.408 39.672 256.552 39.544V36.664ZM294.946 57.976L296.674 59.768C294.434 64.056 290.082 67.64 282.914 67.64C274.402 67.64 265.506 61.816 266.146 51.192C266.722 41.848 273.826 35.704 282.978 36.088C292.834 36.472 296.738 42.936 296.61 50.872V51.896H278.178C278.818 57.464 282.53 60.472 286.754 60.728C289.826 60.92 292.578 60.024 294.946 57.976ZM282.594 38.904C279.842 38.904 278.434 42.872 278.114 47.672H286.178C286.178 43.64 285.538 38.904 282.594 38.904Z" fill="white"/>
</svg>
